<mxfile host="65bd71144e" modified="2021-02-08T04:05:20.202Z" agent="5.0 (X11; Linux x86_64) AppleWebKit/537.36 (KHTML, like Gecko) Code/1.52.1 Chrome/83.0.4103.122 Electron/9.3.5 Safari/537.36" etag="Nr8wLB_0IZt5A2Gz1T85" version="13.10.0" type="embed">
    <diagram id="_GLIByTMy6f6VjunstVh" name="Page-1">
        <mxGraphModel dx="1638" dy="1575" grid="1" gridSize="10" guides="1" tooltips="1" connect="1" arrows="1" fold="1" page="1" pageScale="1" pageWidth="850" pageHeight="1100" math="0" shadow="0">
            <root>
                <mxCell id="0"/>
                <mxCell id="1" parent="0"/>
                <mxCell id="2" value="user&lt;br&gt;&lt;br&gt;first_name&lt;br&gt;last_name&lt;br&gt;address&lt;br&gt;email&lt;br&gt;age&lt;br&gt;password&lt;br&gt;" style="text;strokeColor=none;fillColor=none;html=1;fontSize=24;fontStyle=1;verticalAlign=middle;align=center;" parent="1" vertex="1">
                    <mxGeometry x="-140" y="-5" width="100" height="40" as="geometry"/>
                </mxCell>
                <mxCell id="3" value="attendance&lt;br&gt;user_id&lt;br&gt;attendace_year&lt;br&gt;attendace_month&lt;br&gt;attendace_day&lt;br&gt;attendace_time&lt;br&gt;type(attendace,vac,per)" style="text;strokeColor=none;fillColor=none;html=1;fontSize=24;fontStyle=1;verticalAlign=middle;align=center;" parent="1" vertex="1">
                    <mxGeometry x="150" y="-30" width="100" height="90" as="geometry"/>
                </mxCell>
                <mxCell id="5" value="static&lt;br&gt;late_time" style="text;strokeColor=none;fillColor=none;html=1;fontSize=24;fontStyle=1;verticalAlign=middle;align=center;" parent="1" vertex="1">
                    <mxGeometry x="70" y="180" width="100" height="40" as="geometry"/>
                </mxCell>
                <mxCell id="6" value="&lt;br&gt;&lt;br&gt;&lt;br&gt;holiday&lt;br&gt;&lt;br&gt;day&lt;br&gt;month&lt;br&gt;year" style="text;strokeColor=none;fillColor=none;html=1;fontSize=24;fontStyle=1;verticalAlign=middle;align=center;" parent="1" vertex="1">
                    <mxGeometry x="220" y="160" width="100" height="40" as="geometry"/>
                </mxCell>
                <mxCell id="8" value="Month_vacancies,days" style="text;whiteSpace=wrap;html=1;" vertex="1" parent="1">
                    <mxGeometry x="520" y="160" width="200" height="140" as="geometry"/>
                </mxCell>
            </root>
        </mxGraphModel>
    </diagram>
</mxfile>